<svg xmlns="http://www.w3.org/2000/svg" xmlns:xlink="http://www.w3.org/1999/xlink" width="500" zoomAndPan="magnify" viewBox="0 0 375 374.999991" height="500" preserveAspectRatio="xMidYMid meet" version="1.0"><defs><clipPath id="id1"><path d="M 6.535156 18.75 L 368.785156 18.75 L 368.785156 356 L 6.535156 356 Z M 6.535156 18.75 " clip-rule="nonzero"/></clipPath><clipPath id="id2"><path d="M 179.710938 301.300781 L 195.460938 301.300781 L 195.460938 322 L 179.710938 322 Z M 179.710938 301.300781 " clip-rule="nonzero"/></clipPath></defs><rect x="-37.5" width="450" fill="#ffffff" y="-37.499999" height="449.999989" fill-opacity="1"/><rect x="-37.5" width="450" fill="#ffffff" y="-37.499999" height="449.999989" fill-opacity="1"/><rect x="-37.5" width="450" fill="#ffffff" y="-37.499999" height="449.999989" fill-opacity="1"/><rect x="-37.5" width="450" fill="#ffffff" y="-37.499999" height="449.999989" fill-opacity="1"/><g clip-path="url(#id1)"><path fill="#000645" d="M 187.660156 296.386719 C 195.851562 296.386719 202.488281 303.019531 202.488281 311.207031 C 202.488281 319.390625 195.851562 326.023438 187.660156 326.023438 C 179.46875 326.023438 172.828125 319.390625 172.828125 311.207031 C 172.828125 303.019531 179.46875 296.386719 187.660156 296.386719 Z M 341.816406 154.167969 C 327.679688 138.871094 309.425781 128.394531 289.390625 123.90625 C 289.433594 122.8125 289.445312 121.71875 289.445312 120.628906 C 289.445312 64.558594 243.785156 18.929688 187.660156 18.929688 C 131.535156 18.929688 85.875 64.558594 85.875 120.628906 C 85.875 121.71875 85.890625 122.8125 85.925781 123.90625 C 65.902344 128.394531 47.640625 138.871094 33.503906 154.167969 C 16.105469 172.996094 6.527344 197.488281 6.527344 223.125 C 6.527344 279.199219 52.1875 324.816406 108.3125 324.816406 L 161.304688 324.816406 C 166.242188 334.335938 176.1875 340.84375 187.660156 340.84375 C 204.046875 340.84375 217.332031 327.578125 217.332031 311.207031 C 217.332031 294.832031 204.046875 281.5625 187.660156 281.5625 C 176.1875 281.5625 166.242188 288.070312 161.304688 297.59375 L 108.3125 297.59375 C 67.214844 297.59375 33.777344 264.1875 33.777344 223.125 C 33.777344 184.773438 63.695312 152.183594 101.890625 148.929688 L 116.628906 147.679688 L 114.171875 133.105469 C 113.472656 128.988281 113.121094 124.792969 113.121094 120.628906 C 113.121094 79.570312 146.5625 46.15625 187.660156 46.15625 C 228.757812 46.15625 262.191406 79.570312 262.191406 120.628906 C 262.191406 124.792969 261.84375 128.988281 261.152344 133.105469 L 258.691406 147.679688 L 273.425781 148.929688 C 311.625 152.183594 341.539062 184.773438 341.539062 223.125 C 341.539062 264.1875 308.105469 297.59375 267.007812 297.59375 L 230.378906 297.59375 C 224.609375 279.507812 207.671875 266.414062 187.660156 266.414062 C 168.886719 266.414062 152.816406 277.941406 146.136719 294.300781 L 154.105469 294.300781 C 160.296875 282.058594 172.992188 273.660156 187.660156 273.660156 C 208.417969 273.660156 225.242188 290.464844 225.242188 311.207031 C 225.242188 331.945312 208.417969 348.757812 187.660156 348.757812 C 172.992188 348.757812 160.296875 340.351562 154.105469 328.113281 L 146.136719 328.113281 C 152.816406 344.46875 168.886719 355.996094 187.660156 355.996094 C 207.671875 355.996094 224.609375 342.902344 230.378906 324.816406 L 267.007812 324.816406 C 323.132812 324.816406 368.792969 279.199219 368.792969 223.125 C 368.792969 197.488281 359.210938 172.996094 341.816406 154.167969 " fill-opacity="1" fill-rule="nonzero"/></g><g clip-path="url(#id2)"><path fill="#000645" d="M 189.398438 320.308594 C 187.082031 319.445312 192.304688 307.488281 194 303.535156 C 194.167969 303.140625 194.339844 302.710938 194.238281 302.292969 C 194.054688 301.546875 193.027344 301.3125 192.496094 301.839844 C 190.507812 303.8125 188.53125 305.800781 186.542969 307.769531 C 186.550781 307.761719 186.324219 303.464844 186.222656 302.5625 C 186.105469 301.503906 185.304688 301.972656 184.890625 302.566406 C 183.042969 305.222656 179.710938 310.8125 179.710938 310.8125 C 179.710938 310.8125 184.804688 304.992188 184.808594 304.835938 C 184.753906 306.515625 184.445312 308.371094 184.636719 310.039062 C 184.78125 311.308594 185.703125 311.179688 186.644531 310.417969 C 187.851562 309.445312 190.308594 306.964844 190.308594 306.964844 C 189.722656 308.6875 184.511719 319.605469 188.484375 321.3125 C 190.769531 322.292969 194.074219 319.242188 195.464844 317.617188 C 194.050781 318.636719 190.957031 320.886719 189.398438 320.308594 " fill-opacity="1" fill-rule="nonzero"/></g></svg>